# xmcd
#
# Track frame offsets: 
#        150
#        16947
#        39611
#        59551
#        78977
#        99356
#        117576
#        137332
#        158245
#        176412
#        191317
#        211270
#        228088
#
# Disc length: 3395 seconds
#
# Revision: 0
# Processed by: cddbd v1.5.2PL0 Copyright (c) Steve Scherf et al.
# Submitted via: ExactAudioCopy v0.99pb4
#
DISCID=9e0d410d
DTITLE=JEFFREY DANIEL - SKINNY BOY
DYEAR=1990
DGENRE=R&B
TTITLE0=SHE'S THE GIRL
TTITLE1=SKINNY BOY
TTITLE2=THAT'S MY HEART
TTITLE3=DR.STRANGE LOVE
TTITLE4=HERE WE ARE
TTITLE5=GIRLS, BOYS
TTITLE6=LESSONS
TTITLE7=BLUE IS THE NIGHT
TTITLE8=MY LIFE
TTITLE9=I BELIEVE
TTITLE10=I'LL BE AROUUND
TTITLE11=SHE'S THE GIRL[RADIO MIX]
TTITLE12=SHE'S THE GIRL[EXTENDED MIX]
EXTD=
EXTT0=
EXTT1=
EXTT2=
EXTT3=
EXTT4=
EXTT5=
EXTT6=
EXTT7=
EXTT8=
EXTT9=
EXTT10=
EXTT11=
EXTT12=
PLAYORDER=
